<?xml version="1.0" encoding="UTF-8"?>
<svg width="3879px" height="1000px" viewBox="0 0 3879 1000" version="1.1" xmlns="http://www.w3.org/2000/svg" xmlns:xlink="http://www.w3.org/1999/xlink">
    <!-- Generator: Sketch 46.2 (44496) - http://www.bohemiancoding.com/sketch -->
    <title>nationbuilder-horizontal-black</title>
    <desc>Created with Sketch.</desc>
    <defs>
        <path d="M0,11.988 L45.6,11.988 L195.6,205.3944 L195.6,11.988 L244,11.988 L244,291.708 L202.8,291.708 L48.4,92.7072 L48.4,291.708 L0,291.708 L0,11.988 Z M440.8,203.3964 C434.665,200.9988 427.4,199.0008 419,197.4024 C410.6,195.804 401.735,195.0048 392.4,195.0048 C377.2,195.0048 365.335,197.936865 356.8,203.796 C348.265,209.655135 344,217.647135 344,227.772 L344,228.5712 C344,238.696065 347.935,246.418335 355.8,251.748 C363.665,257.077665 373.335,259.74 384.8,259.74 C392.8,259.74 400.2,258.676065 407,256.5432 C413.8,254.410335 419.735,251.413335 424.8,247.5522 C429.865,243.691065 433.8,239.025735 436.6,233.5662 C439.4,228.106665 440.8,222.042735 440.8,215.3844 L440.8,203.3964 Z M439.6,291.708 L439.6,265.734 C432.4,274.260465 423.2,281.453265 412,287.3124 C400.8,293.171535 387.2,296.1036 371.2,296.1036 C361.065,296.1036 351.465,294.705 342.4,291.9078 C333.335,289.1106 325.4,284.979735 318.6,279.5202 C311.8,274.060665 306.335,267.267465 302.2,259.1406 C298.065,251.013735 296,241.623135 296,230.9688 L296,230.1696 C296,218.446335 298.135,208.256535 302.4,199.6002 C306.665,190.943865 312.6,183.751065 320.2,178.0218 C327.8,172.292535 336.865,168.0318 347.4,165.2346 C357.935,162.4374 369.335,161.0388 381.6,161.0388 C394.4,161.0388 405.265,161.838 414.2,163.4364 C423.135,165.0348 431.735,167.167665 440,169.83 L440,165.834 C440,151.183665 435.535,139.994865 426.6,132.2676 C417.665,124.540335 404.8,120.6792 388,120.6792 C376,120.6792 365.335,121.878 356,124.2756 C346.665,126.6732 337.2,129.87 327.6,133.866 L314.4,95.1048 C326.135,89.775135 338.135,85.5144 350.4,82.3176 C362.665,79.1208 377.465,77.5224 394.8,77.5224 C426.265,77.5224 449.6,85.3146 464.8,100.899 C480,116.4834 487.6,138.396465 487.6,166.6332 L487.6,291.708 L439.6,291.708 Z M616,295.3044 C607.2,295.3044 599.065,294.240465 591.6,292.1076 C584.135,289.974735 577.665,286.5132 572.2,281.718 C566.735,276.9228 562.535,270.594135 559.6,262.737 C556.665,254.879865 555.2,245.089665 555.2,233.3664 L555.2,122.2776 L528.4,122.2776 L528.4,80.7192 L555.2,80.7192 L555.2,22.7772 L603.6,22.7772 L603.6,80.7192 L660.4,80.7192 L660.4,122.2776 L603.6,122.2776 L603.6,225.774 C603.6,235.099665 605.865,241.822935 610.4,245.9538 C614.935,250.084665 621.335,252.1476 629.6,252.1476 C640,252.1476 650,249.75 659.6,244.9548 L659.6,284.5152 C653.465,287.976735 646.935,290.644065 640,292.5072 C633.065,294.370335 625.065,295.3044 616,295.3044 Z M712,291.708 L760.4,291.708 L760.4,80.7192 L712,80.7192 L712,291.708 Z M710,48.3516 L762,48.3516 L762,2.3976 L710,2.3976 L710,48.3516 Z M924.8,254.5452 C934.665,254.5452 943.535,252.747 951.4,249.1506 C959.265,245.5542 966,240.694065 971.6,234.5652 C977.2,228.436335 981.465,221.313465 984.4,213.1866 C987.335,205.059735 988.8,196.468335 988.8,187.4124 L988.8,186.6132 C988.8,177.287535 987.2,168.496335 984,160.2396 C980.8,151.982865 976.335,144.790065 970.6,138.6612 C964.865,132.532335 958.065,127.6722 950.2,124.0758 C942.335,120.4794 933.6,118.6812 924,118.6812 C914.4,118.6812 905.665,120.4794 897.8,124.0758 C889.935,127.6722 883.2,132.4674 877.6,138.4614 C872,144.4554 867.735,151.583265 864.8,159.84 C861.865,168.096735 860.4,176.758065 860.4,185.814 L860.4,186.6132 C860.4,195.938865 862,204.660135 865.2,212.787 C868.4,220.913865 872.865,228.106665 878.6,234.3654 C884.335,240.624135 891.135,245.5542 899,249.1506 C906.865,252.747 915.465,254.5452 924.8,254.5452 Z M924,296.5032 C908,296.5032 893.135,293.641065 879.4,287.9118 C865.665,282.182535 853.8,274.390335 843.8,264.5352 C833.8,254.680065 826,243.091665 820.4,229.77 C814.8,216.448335 812,202.332465 812,187.4124 L812,186.6132 C812,171.4284 814.865,157.177665 820.6,143.856 C826.335,130.534335 834.2,118.881 844.2,108.891 C854.2,98.901 866.065,90.973935 879.8,85.1148 C893.535,79.255665 908.535,76.3236 924.8,76.3236 C941.065,76.3236 956.065,79.185735 969.8,84.915 C983.535,90.644265 995.4,98.5014 1005.4,108.4914 C1015.4,118.4814 1023.2,130.0698 1028.8,143.2566 C1034.4,156.4434 1037.2,170.6292 1037.2,185.814 L1037.2,186.6132 C1037.2,201.533265 1034.335,215.649135 1028.6,228.9708 C1022.865,242.292465 1015,253.9458 1005,263.9358 C995,273.9258 983.065,281.852865 969.2,287.712 C955.335,293.571135 940.265,296.5032 924,296.5032 Z M1086.4,80.7192 L1134.8,80.7192 L1134.8,113.4864 C1138.265,108.426465 1142.065,103.6962 1146.2,99.3006 C1150.335,94.905 1155.135,90.973935 1160.6,87.5124 C1166.065,84.050865 1172.065,81.3186 1178.6,79.3206 C1185.135,77.3226 1192.535,76.3236 1200.8,76.3236 C1224.8,76.3236 1243.335,83.651265 1256.4,98.3016 C1269.465,112.951935 1276,132.6672 1276,157.4424 L1276,291.708 L1227.6,291.708 L1227.6,171.828 C1227.6,155.309535 1223.665,142.592265 1215.8,133.6662 C1207.935,124.740135 1196.8,120.2796 1182.4,120.2796 C1168.265,120.2796 1156.8,124.875 1148,134.0658 C1139.2,143.2566 1134.8,156.108735 1134.8,172.6272 L1134.8,291.708 L1086.4,291.708 L1086.4,80.7192 Z M1470,248.1516 C1486.8,248.1516 1500,244.9548 1509.6,238.5612 C1519.2,232.1676 1524,222.5772 1524,209.79 L1524,208.9908 C1524,197.0028 1519.265,187.747065 1509.8,181.2186 C1500.335,174.690135 1485.865,171.4284 1466.4,171.4284 L1388.4,171.4284 L1388.4,248.1516 L1470,248.1516 Z M1455.6,129.87 C1471.6,129.87 1484.4,126.738135 1494,120.4794 C1503.6,114.220665 1508.4,104.6952 1508.4,91.908 L1508.4,91.1088 C1508.4,79.92 1504.2,71.193735 1495.8,64.935 C1487.4,58.676265 1475.2,55.5444 1459.2,55.5444 L1388.4,55.5444 L1388.4,129.87 L1455.6,129.87 Z M1340,11.988 L1465.6,11.988 C1497.865,11.988 1522.265,20.244735 1538.8,36.7632 C1551.335,49.285665 1557.6,64.7352 1557.6,83.1168 L1557.6,83.916 C1557.6,92.442465 1556.465,99.964935 1554.2,106.4934 C1551.935,113.021865 1549,118.746135 1545.4,123.6762 C1541.8,128.606265 1537.535,132.931935 1532.6,136.6632 C1527.665,140.394465 1522.665,143.591265 1517.6,146.2536 C1525.865,149.185665 1533.4,152.582265 1540.2,156.4434 C1547,160.304535 1552.865,164.899935 1557.8,170.2296 C1562.735,175.559265 1566.535,181.818 1569.2,189.0108 C1571.865,196.2036 1573.2,204.5952 1573.2,214.1856 L1573.2,214.9848 C1573.2,227.507265 1570.735,238.5612 1565.8,248.1516 C1560.865,257.742 1553.865,265.734 1544.8,272.1276 C1535.735,278.5212 1524.8,283.381335 1512,286.713 C1499.2,290.044665 1485.065,291.708 1469.6,291.708 L1340,291.708 L1340,11.988 Z M1696,296.1036 C1672,296.1036 1653.465,288.775935 1640.4,274.1256 C1627.335,259.475265 1620.8,239.76 1620.8,214.9848 L1620.8,80.7192 L1669.2,80.7192 L1669.2,200.5992 C1669.2,217.117665 1673.135,229.834935 1681,238.761 C1688.865,247.687065 1700,252.1476 1714.4,252.1476 C1728.535,252.1476 1740,247.5522 1748.8,238.3614 C1757.6,229.1706 1762,216.318465 1762,199.8 L1762,80.7192 L1810.4,80.7192 L1810.4,291.708 L1762,291.708 L1762,258.9408 C1755.065,269.065665 1746.4,277.786935 1736,285.1146 C1725.6,292.442265 1712.265,296.1036 1696,296.1036 Z M1874,291.708 L1922.4,291.708 L1922.4,80.7192 L1874,80.7192 L1874,291.708 Z M1872,48.3516 L1924,48.3516 L1924,2.3976 L1872,2.3976 L1872,48.3516 Z M1988.4,291.708 L2036.8,291.708 L2036.8,0 L1988.4,0 L1988.4,291.708 Z M2198.8,254.1456 C2206.8,254.1456 2214.535,252.5472 2222,249.3504 C2229.465,246.1536 2236,241.5582 2241.6,235.5642 C2247.2,229.5702 2251.665,222.442335 2255,214.1856 C2258.335,205.928865 2260,196.738065 2260,186.6132 L2260,185.814 C2260,175.689135 2258.335,166.4334 2255,158.0418 C2251.665,149.6502 2247.2,142.522335 2241.6,136.6632 C2236,130.804065 2229.465,126.2736 2222,123.0768 C2214.535,119.88 2206.8,118.2816 2198.8,118.2816 C2190.535,118.2816 2182.735,119.815065 2175.4,122.877 C2168.065,125.938935 2161.6,130.404465 2156,136.2636 C2150.4,142.122735 2146,149.2506 2142.8,157.6422 C2139.6,166.0338 2138,175.4244 2138,185.814 L2138,186.6132 C2138,196.738065 2139.6,205.9938 2142.8,214.3854 C2146,222.777 2150.4,229.904865 2156,235.764 C2161.6,241.623135 2168.065,246.1536 2175.4,249.3504 C2182.735,252.5472 2190.535,254.1456 2198.8,254.1456 Z M2187.2,296.1036 C2174.665,296.1036 2162.535,293.706 2150.8,288.9108 C2139.065,284.1156 2128.665,277.057665 2119.6,267.732 C2110.535,258.406335 2103.2,246.9528 2097.6,233.3664 C2092,219.78 2089.2,204.1956 2089.2,186.6132 L2089.2,185.814 C2089.2,168.2316 2091.935,152.6472 2097.4,139.0608 C2102.865,125.4744 2110.135,114.020865 2119.2,104.6952 C2128.265,95.369535 2138.735,88.3116 2150.6,83.5164 C2162.465,78.7212 2174.665,76.3236 2187.2,76.3236 C2204.535,76.3236 2218.935,80.054865 2230.4,87.5124 C2241.865,94.969935 2251.465,103.631265 2259.2,113.4864 L2259.2,0 L2307.6,0 L2307.6,291.708 L2259.2,291.708 L2259.2,256.5432 C2251.465,267.467265 2241.8,276.787935 2230.2,284.5152 C2218.6,292.242465 2204.265,296.1036 2187.2,296.1036 Z M2512.8,171.4284 C2512,163.701135 2510.265,156.4434 2507.6,149.6502 C2504.935,142.857 2501.335,136.997865 2496.8,132.0678 C2492.265,127.137735 2486.865,123.211665 2480.6,120.2796 C2474.335,117.347535 2467.2,115.884 2459.2,115.884 C2444.265,115.884 2431.935,121.013865 2422.2,131.2686 C2412.465,141.523335 2406.535,154.909935 2404.4,171.4284 L2512.8,171.4284 Z M2464.8,296.5032 C2449.6,296.5032 2435.4,293.840865 2422.2,288.5112 C2409,283.181535 2397.535,275.724 2387.8,266.1336 C2378.065,256.5432 2370.4,245.019735 2364.8,231.5682 C2359.2,218.116665 2356.4,203.261535 2356.4,187.0128 L2356.4,186.2136 C2356.4,171.0288 2358.935,156.778065 2364,143.4564 C2369.065,130.134735 2376.2,118.4814 2385.4,108.4914 C2394.6,98.5014 2405.465,90.644265 2418,84.915 C2430.535,79.185735 2444.4,76.3236 2459.6,76.3236 C2476.4,76.3236 2491.135,79.385535 2503.8,85.5144 C2516.465,91.643265 2527,99.9 2535.4,110.2896 C2543.8,120.6792 2550.135,132.732135 2554.4,146.4534 C2558.665,160.174665 2560.8,174.6252 2560.8,189.81 C2560.8,191.942865 2560.735,194.140665 2560.6,196.4034 C2560.465,198.666135 2560.265,200.9988 2560,203.3964 L2404.8,203.3964 C2407.465,220.714065 2414.335,233.9658 2425.4,243.1566 C2436.465,252.3474 2449.865,256.9428 2465.6,256.9428 C2477.6,256.9428 2488,254.809935 2496.8,250.5492 C2505.6,246.288465 2514.265,240.024735 2522.8,231.768 L2551.2,256.9428 C2541.065,268.9308 2529,278.5212 2515,285.714 C2501,292.9068 2484.265,296.5032 2464.8,296.5032 Z M2609.6,80.7192 L2658,80.7192 L2658,128.2716 C2664.665,112.2876 2674.135,99.5004 2686.4,89.91 C2698.665,80.3196 2714.135,75.924 2732.8,76.7232 L2732.8,127.872 L2730,127.872 C2719.335,127.872 2709.6,129.605265 2700.8,133.0668 C2692,136.528335 2684.4,141.723135 2678,148.6512 C2671.6,155.579265 2666.665,164.300535 2663.2,174.825 C2659.735,185.349465 2658,197.537265 2658,211.3884 L2658,291.708 L2609.6,291.708 L2609.6,80.7192 Z" id="path-1"></path>
    </defs>
    <g id="Logos-#" stroke="none" stroke-width="1" fill="none" fill-rule="evenodd">
        <g id="nationbuilder-horizontal-black">
            <g>
                <g id="NationBuilder" transform="translate(1146.000000, 350.649000)">
                    <mask id="mask-2" fill="white">
                        <use xlink:href="#path-1"></use>
                    </mask>
                    <g id="Clip-27"></g>
                    <polygon id="Fill-26" fill="#000000" mask="url(#mask-2)" points="-0.3 296.9028 2733.3 296.9028 2733.3 -0.3996 -0.3 -0.3996"></polygon>
                </g>
                <g id="Mark">
                    <g id="Circle" transform="translate(500.000000, 500.000000) scale(1, -1) translate(-500.000000, -500.000000) ">
                        <path d="M500.344674,0 C678.800904,0 843.691364,95.295203 932.919479,250 C1022.14759,404.704797 1022.14759,595.295203 932.919479,750 C843.691364,904.704797 678.800904,1000 500.344674,1000 C321.888444,1000 156.997984,904.704797 67.7698685,750 C-21.4582466,595.295203 -21.4582466,404.704797 67.7698685,250 C156.997984,95.295203 321.888444,0 500.344674,0 L500.344674,47.9704797 C339.011542,47.9704797 189.935526,134.132841 109.259744,273.98524 C28.5839622,413.837638 28.5839622,586.162362 109.259744,726.01476 C189.935526,865.867159 339.011542,952.02952 500.344674,952.02952 C661.677806,952.02952 810.753822,865.867159 891.429604,726.01476 C972.105385,586.162362 972.105385,413.837638 891.429604,273.98524 C810.753822,134.132841 661.677806,47.9704797 500.344674,47.9704797 L500.344674,0 Z" id="Base-plate" fill-opacity="0.002" fill="#455A64"></path>
                        <path d="M500.344674,0 C652.351339,0 796.100578,69.2804428 890.876651,188.247232 L853.404898,218.154982 C767.715679,110.608856 637.771822,47.9704797 500.344674,47.9704797 L500.344674,0 Z" id="Segment-1" fill="#CE001B"></path>
                        <path d="M890.876651,188.247232 C985.652724,307.214022 1021.15228,462.915129 987.330013,611.254613 L940.60552,600.590406 C971.183798,466.476015 939.094116,325.701107 853.404898,218.154982 L890.876651,188.247232 Z" id="Segment-2" fill="#780011"></path>
                        <path d="M987.330013,611.254613 C953.507747,759.594096 854.013146,884.464945 717.065223,950.479705 L696.274205,907.269373 C820.09872,847.583026 910.027242,734.704797 940.60552,600.590406 L987.330013,611.254613 Z" id="Segment-3" fill="#6D7096"></path>
                        <path d="M717.065223,950.479705 C580.1173,1016.49446 420.572048,1016.49446 283.624125,950.479705 L304.415142,907.269373 C428.239657,966.95572 572.449691,966.95572 696.274205,907.269373 L717.065223,950.479705 Z" id="Segment-4" fill="#60BBD5"></path>
                        <path d="M283.624125,950.479705 C146.676202,884.464945 47.1816007,759.594096 13.3593344,611.254613 L60.0838276,600.590406 C90.6621054,734.704797 180.590627,847.583026 304.415142,907.269373 L283.624125,950.479705 Z" id="Segment-5" fill="#0F99BE"></path>
                        <path d="M13.3593344,611.254613 C-20.4629319,462.915129 15.0366239,307.214022 109.812697,188.247232 L147.28445,218.154982 C61.5952313,325.701107 29.5055498,466.476015 60.0838276,600.590406 L13.3593344,611.254613 Z" id="Segment-6" fill="#8C9D26"></path>
                        <path d="M109.812697,188.247232 C204.588769,69.2804428 348.338009,0 500.344674,0 L500.344674,47.9704797 C362.917525,47.9704797 232.973668,110.608856 147.28445,218.154982 L109.812697,188.247232 Z" id="Segment-7" fill="#FCD813"></path>
                    </g>
                    <path d="M279,624.375 L279,580.419 L365.792431,580.419 L394.058327,417.582 L308,417.582 L308,372.627 L401.749519,372.627 L424.749519,231.768 L477.922978,231.768 L453.922978,372.627 L588.749519,372.627 L611.749519,231.768 L664.881687,231.768 L641.881687,372.627 L722,372.627 L722,417.582 L634.207569,417.582 L605.941673,580.419 L693,580.419 L693,624.375 L599.235635,624.375 L575.235635,768.231 L523.097698,768.231 L547.097698,624.375 L412.235635,624.375 L388.235635,768.231 L336.138013,768.231 L359.138013,624.375 L279,624.375 Z M581.125686,417.582 L445.255816,417.582 L418.874314,580.419 L554.744184,580.419 L581.125686,417.582 Z" id="Octothorpe" fill="#000000" fill-rule="nonzero"></path>
                </g>
            </g>
        </g>
    </g>
</svg>